<svg width="375" height="667" viewBox="0 0 375 667" fill="none" xmlns="http://www.w3.org/2000/svg">
<rect width="375" height="667" fill="#F0F2F5"/>
<path d="M24.86 144.02C24.86 148.2 27.92 151.12 31.82 151.12C34.84 151.12 37.24 149.62 38.28 146.94H36.1C35.34 148.6 33.86 149.54 31.82 149.54C28.9 149.54 26.72 147.42 26.72 144.02C26.72 140.6 28.9 138.48 31.82 138.48C33.86 138.48 35.34 139.42 36.1 141.1H38.28C37.24 138.4 34.84 136.88 31.82 136.88C27.92 136.88 24.86 139.84 24.86 144.02ZM40.3092 145.48C40.3092 148.88 42.5692 151.18 45.4892 151.18C47.5092 151.18 48.9292 150.14 49.5892 148.96V151H51.4292V140.04H49.5892V142.04C48.9492 140.9 47.5492 139.86 45.5092 139.86C42.5692 139.86 40.3092 142.06 40.3092 145.48ZM49.5892 145.5C49.5892 148.08 47.8692 149.58 45.8692 149.58C43.8692 149.58 42.1692 148.06 42.1692 145.48C42.1692 142.9 43.8692 141.44 45.8692 141.44C47.8692 141.44 49.5892 142.96 49.5892 145.5ZM53.8248 145.48C53.8248 148.88 56.0848 151.18 59.0248 151.18C61.0248 151.18 62.4448 150.16 63.1048 148.94V151H64.9448V136.2H63.1048V142C62.3448 140.74 60.7648 139.86 59.0448 139.86C56.0848 139.86 53.8248 142.06 53.8248 145.48ZM63.1048 145.5C63.1048 148.08 61.3848 149.58 59.3848 149.58C57.3848 149.58 55.6848 148.06 55.6848 145.48C55.6848 142.9 57.3848 141.44 59.3848 141.44C61.3848 141.44 63.1048 142.96 63.1048 145.5ZM67.3405 145.48C67.3405 148.88 69.6005 151.18 72.5205 151.18C74.5405 151.18 75.9605 150.14 76.6205 148.96V151H78.4605V140.04H76.6205V142.04C75.9805 140.9 74.5805 139.86 72.5405 139.86C69.6005 139.86 67.3405 142.06 67.3405 145.48ZM76.6205 145.5C76.6205 148.08 74.9005 149.58 72.9005 149.58C70.9005 149.58 69.2005 148.06 69.2005 145.48C69.2005 142.9 70.9005 141.44 72.9005 141.44C74.9005 141.44 76.6205 142.96 76.6205 145.5ZM89.4161 148.02C89.3361 144.1 82.9761 145.52 82.9761 142.92C82.9761 142.04 83.7761 141.4 85.1161 141.4C86.5761 141.4 87.4161 142.2 87.4961 143.3H89.3161C89.1961 141.16 87.5961 139.86 85.1761 139.86C82.7361 139.86 81.1561 141.24 81.1561 142.92C81.1561 147 87.6361 145.58 87.6361 148.02C87.6361 148.92 86.8361 149.64 85.3961 149.64C83.8561 149.64 82.9161 148.84 82.8161 147.78H80.9361C81.0561 149.78 82.8561 151.18 85.4161 151.18C87.8361 151.18 89.4161 149.82 89.4161 148.02ZM92.3853 148C92.3853 150.2 93.4853 151 95.4253 151H97.0653V149.46H95.7253C94.6053 149.46 94.2053 149.08 94.2053 148V141.54H97.0653V140.04H94.2053V137.28H92.3853V140.04H90.9653V141.54H92.3853V148ZM101.09 145.04C101.09 142.5 102.41 141.72 104.15 141.72H104.63V139.84C102.89 139.84 101.71 140.6 101.09 141.82V140.04H99.2705V151H101.09V145.04ZM117.131 145.5C117.131 142.04 114.711 139.86 111.591 139.86C108.491 139.86 106.051 142.04 106.051 145.5C106.051 148.98 108.411 151.18 111.511 151.18C114.631 151.18 117.131 148.98 117.131 145.5ZM107.911 145.5C107.911 142.74 109.651 141.44 111.571 141.44C113.451 141.44 115.271 142.74 115.271 145.5C115.271 148.28 113.411 149.58 111.511 149.58C109.611 149.58 107.911 148.28 107.911 145.5Z" fill="black"/>
<rect opacity="0.2" x="24.75" y="315.75" width="158.5" height="48.5" rx="4.25" stroke="#969CB3" stroke-width="1.5"/>
<path d="M96.078 345H97.352V335.242H96.078V345ZM105.137 345H106.397V340.478C106.397 338.28 105.039 337.188 103.261 337.188C102.225 337.188 101.301 337.622 100.797 338.42V337.328H99.5233V345H100.797V340.758C100.797 339.106 101.693 338.294 102.995 338.294C104.283 338.294 105.137 339.092 105.137 340.66V345ZM108.002 341.15C108.002 343.586 109.556 345.126 111.74 345.126C113.644 345.126 114.89 344.062 115.282 342.536H113.91C113.63 343.502 112.874 344.048 111.74 344.048C110.34 344.048 109.304 343.054 109.304 341.15C109.304 339.274 110.34 338.28 111.74 338.28C112.874 338.28 113.644 338.868 113.91 339.792H115.282C114.89 338.182 113.644 337.202 111.74 337.202C109.556 337.202 108.002 338.742 108.002 341.15ZM124.262 341.15C124.262 338.728 122.568 337.202 120.384 337.202C118.214 337.202 116.506 338.728 116.506 341.15C116.506 343.586 118.158 345.126 120.328 345.126C122.512 345.126 124.262 343.586 124.262 341.15ZM117.808 341.15C117.808 339.218 119.026 338.308 120.37 338.308C121.686 338.308 122.96 339.218 122.96 341.15C122.96 343.096 121.658 344.006 120.328 344.006C118.998 344.006 117.808 343.096 117.808 341.15ZM137.011 345H138.271V340.478C138.271 338.28 136.913 337.188 135.163 337.188C133.987 337.188 132.895 337.79 132.447 338.896C131.943 337.748 130.893 337.188 129.633 337.188C128.625 337.188 127.715 337.622 127.211 338.434V337.328H125.937V345H127.211V340.772C127.211 339.12 128.093 338.294 129.381 338.294C130.641 338.294 131.481 339.092 131.481 340.66V345H132.741V340.772C132.741 339.12 133.623 338.294 134.911 338.294C136.171 338.294 137.011 339.092 137.011 340.66V345ZM143.623 338.28C144.939 338.28 146.059 339.106 146.045 340.604H141.201C141.341 339.106 142.377 338.28 143.623 338.28ZM147.207 342.634H145.835C145.555 343.46 144.827 344.048 143.679 344.048C142.377 344.048 141.285 343.194 141.187 341.64H147.319C147.347 341.374 147.361 341.15 147.361 340.87C147.361 338.77 145.905 337.202 143.679 337.202C141.439 337.202 139.885 338.728 139.885 341.15C139.885 343.586 141.495 345.126 143.679 345.126C145.583 345.126 146.815 344.034 147.207 342.634Z" fill="#363F5F"/>
<path d="M71 330C65.4772 330 61 334.477 61 340C61 345.523 65.4772 350 71 350C76.5228 350 81 345.523 81 340C81 334.477 76.5228 330 71 330Z" stroke="#12A454" stroke-width="1.5" stroke-linecap="round" stroke-linejoin="round"/>
<path d="M75 340L71 336L67 340" stroke="#12A454" stroke-width="1.5" stroke-linecap="round" stroke-linejoin="round"/>
<path d="M71 344L71 336" stroke="#12A454" stroke-width="1.5" stroke-linecap="round" stroke-linejoin="round"/>
<path opacity="0.2" d="M192.75 320C192.75 317.653 194.653 315.75 197 315.75H346C348.347 315.75 350.25 317.653 350.25 320V360C350.25 362.347 348.347 364.25 346 364.25H197C194.653 364.25 192.75 362.347 192.75 360V320Z" stroke="#969CB3" stroke-width="1.5"/>
<path d="M267.402 340.114C267.402 337.188 265.26 335.13 262.502 335.13C259.758 335.13 257.602 337.188 257.602 340.114C257.602 343.04 259.758 345.098 262.502 345.098C265.26 345.098 267.402 343.04 267.402 340.114ZM258.904 340.114C258.904 337.72 260.444 336.236 262.502 336.236C264.56 336.236 266.1 337.72 266.1 340.114C266.1 342.494 264.56 343.992 262.502 343.992C260.444 343.992 258.904 342.494 258.904 340.114ZM275.888 337.328H274.614V341.542C274.614 343.194 273.732 344.006 272.416 344.006C271.128 344.006 270.274 343.208 270.274 341.654V337.328H269.014V341.822C269.014 344.02 270.4 345.112 272.164 345.112C273.186 345.112 274.124 344.664 274.614 343.866V345H275.888V337.328ZM278.319 342.9C278.319 344.44 279.089 345 280.447 345H281.595V343.922H280.657C279.873 343.922 279.593 343.656 279.593 342.9V338.378H281.595V337.328H279.593V335.396H278.319V337.328H277.325V338.378H278.319V342.9ZM282.663 341.15C282.663 343.586 284.217 345.126 286.401 345.126C288.305 345.126 289.551 344.062 289.943 342.536H288.571C288.291 343.502 287.535 344.048 286.401 344.048C285.001 344.048 283.965 343.054 283.965 341.15C283.965 339.274 285.001 338.28 286.401 338.28C287.535 338.28 288.305 338.868 288.571 339.792H289.943C289.551 338.182 288.305 337.202 286.401 337.202C284.217 337.202 282.663 338.742 282.663 341.15ZM298.922 341.15C298.922 338.728 297.228 337.202 295.044 337.202C292.874 337.202 291.166 338.728 291.166 341.15C291.166 343.586 292.818 345.126 294.988 345.126C297.172 345.126 298.922 343.586 298.922 341.15ZM292.468 341.15C292.468 339.218 293.686 338.308 295.03 338.308C296.346 338.308 297.62 339.218 297.62 341.15C297.62 343.096 296.318 344.006 294.988 344.006C293.658 344.006 292.468 343.096 292.468 341.15ZM311.672 345H312.932V340.478C312.932 338.28 311.574 337.188 309.824 337.188C308.648 337.188 307.556 337.79 307.108 338.896C306.604 337.748 305.554 337.188 304.294 337.188C303.286 337.188 302.376 337.622 301.872 338.434V337.328H300.598V345H301.872V340.772C301.872 339.12 302.754 338.294 304.042 338.294C305.302 338.294 306.142 339.092 306.142 340.66V345H307.402V340.772C307.402 339.12 308.284 338.294 309.572 338.294C310.832 338.294 311.672 339.092 311.672 340.66V345ZM318.283 338.28C319.599 338.28 320.719 339.106 320.705 340.604H315.861C316.001 339.106 317.037 338.28 318.283 338.28ZM321.867 342.634H320.495C320.215 343.46 319.487 344.048 318.339 344.048C317.037 344.048 315.945 343.194 315.847 341.64H321.979C322.007 341.374 322.021 341.15 322.021 340.87C322.021 338.77 320.565 337.202 318.339 337.202C316.099 337.202 314.545 338.728 314.545 341.15C314.545 343.586 316.155 345.126 318.339 345.126C320.243 345.126 321.475 344.034 321.867 342.634Z" fill="#363F5F"/>
<path d="M233 350C238.523 350 243 345.523 243 340C243 334.477 238.523 330 233 330C227.477 330 223 334.477 223 340C223 345.523 227.477 350 233 350Z" stroke="#E83F5B" stroke-width="1.5" stroke-linecap="round" stroke-linejoin="round"/>
<path d="M229 340L233 344L237 340" stroke="#E83F5B" stroke-width="1.5" stroke-linecap="round" stroke-linejoin="round"/>
<path d="M233 336L233 344" stroke="#E83F5B" stroke-width="1.5" stroke-linecap="round" stroke-linejoin="round"/>
<rect x="24" y="183" width="327" height="50" rx="5" fill="white"/>
<path d="M47.476 203.228V210.984L42.352 203.228H41.078V213H42.352V205.23L47.476 213H48.75V203.228H47.476ZM58.2018 209.15C58.2018 206.728 56.5078 205.202 54.3238 205.202C52.1538 205.202 50.4458 206.728 50.4458 209.15C50.4458 211.586 52.0978 213.126 54.2678 213.126C56.4518 213.126 58.2018 211.586 58.2018 209.15ZM51.7478 209.15C51.7478 207.218 52.9658 206.308 54.3098 206.308C55.6258 206.308 56.8998 207.218 56.8998 209.15C56.8998 211.096 55.5978 212.006 54.2678 212.006C52.9378 212.006 51.7478 211.096 51.7478 209.15ZM70.9508 213H72.2108V208.478C72.2108 206.28 70.8528 205.188 69.1028 205.188C67.9268 205.188 66.8348 205.79 66.3868 206.896C65.8828 205.748 64.8328 205.188 63.5728 205.188C62.5648 205.188 61.6548 205.622 61.1508 206.434V205.328H59.8768V213H61.1508V208.772C61.1508 207.12 62.0328 206.294 63.3208 206.294C64.5808 206.294 65.4208 207.092 65.4208 208.66V213H66.6808V208.772C66.6808 207.12 67.5628 206.294 68.8508 206.294C70.1108 206.294 70.9508 207.092 70.9508 208.66V213ZM77.5627 206.28C78.8787 206.28 79.9987 207.106 79.9847 208.604H75.1407C75.2807 207.106 76.3167 206.28 77.5627 206.28ZM81.1467 210.634H79.7747C79.4947 211.46 78.7667 212.048 77.6187 212.048C76.3167 212.048 75.2247 211.194 75.1267 209.64H81.2587C81.2867 209.374 81.3007 209.15 81.3007 208.87C81.3007 206.77 79.8447 205.202 77.6187 205.202C75.3787 205.202 73.8247 206.728 73.8247 209.15C73.8247 211.586 75.4347 213.126 77.6187 213.126C79.5227 213.126 80.7547 212.034 81.1467 210.634Z" fill="#969CB3"/>
<rect x="24" y="249" width="327" height="50" rx="5" fill="white"/>
<path d="M42.352 273.876V270.292H44.228C45.684 270.292 46.3 270.964 46.3 272.098C46.3 273.19 45.684 273.876 44.228 273.876H42.352ZM47.602 272.098C47.602 270.502 46.524 269.242 44.228 269.242H41.078V279H42.352V274.926H44.228C46.65 274.926 47.602 273.582 47.602 272.098ZM50.4594 274.828C50.4594 273.05 51.3834 272.504 52.6014 272.504H52.9374V271.188C51.7194 271.188 50.8934 271.72 50.4594 272.574V271.328H49.1854V279H50.4594V274.828ZM57.6701 272.28C58.9861 272.28 60.1061 273.106 60.0921 274.604H55.2481C55.3881 273.106 56.4241 272.28 57.6701 272.28ZM61.2541 276.634H59.8821C59.6021 277.46 58.8741 278.048 57.7261 278.048C56.4241 278.048 55.3321 277.194 55.2341 275.64H61.3661C61.3941 275.374 61.4081 275.15 61.4081 274.87C61.4081 272.77 59.9521 271.202 57.7261 271.202C55.4861 271.202 53.9321 272.728 53.9321 275.15C53.9321 277.586 55.5421 279.126 57.7261 279.126C59.6301 279.126 60.8621 278.034 61.2541 276.634ZM62.6137 275.15C62.6137 277.404 63.9577 278.902 65.8897 279.098V280.596H66.5897C67.1917 280.596 67.4857 280.764 67.4857 281.198C67.4857 281.646 67.1917 281.814 66.5897 281.814H65.2317V282.64H66.8417C67.8357 282.64 68.5497 282.08 68.5497 281.198C68.5497 280.274 67.8217 279.798 66.7437 279.812V279.112C68.4237 278.972 69.5297 277.95 69.8937 276.536H68.5217C68.2417 277.502 67.4857 278.048 66.3517 278.048C64.9517 278.048 63.9157 277.054 63.9157 275.15C63.9157 273.274 64.9517 272.28 66.3517 272.28C67.4857 272.28 68.2557 272.868 68.5217 273.792H69.8937C69.5017 272.182 68.2557 271.202 66.3517 271.202C64.1677 271.202 62.6137 272.742 62.6137 275.15ZM78.8736 275.15C78.8736 272.728 77.1796 271.202 74.9956 271.202C72.8256 271.202 71.1176 272.728 71.1176 275.15C71.1176 277.586 72.7696 279.126 74.9396 279.126C77.1236 279.126 78.8736 277.586 78.8736 275.15ZM72.4196 275.15C72.4196 273.218 73.6376 272.308 74.9816 272.308C76.2976 272.308 77.5716 273.218 77.5716 275.15C77.5716 277.096 76.2696 278.006 74.9396 278.006C73.6096 278.006 72.4196 277.096 72.4196 275.15Z" fill="#969CB3"/>
<rect x="24" y="381" width="327" height="50" rx="5" fill="white"/>
<path d="M40.602 406.114C40.602 409.04 42.744 411.084 45.474 411.084C47.588 411.084 49.268 410.034 49.996 408.158H48.47C47.938 409.32 46.902 409.978 45.474 409.978C43.43 409.978 41.904 408.494 41.904 406.114C41.904 403.72 43.43 402.236 45.474 402.236C46.902 402.236 47.938 402.894 48.47 404.07H49.996C49.268 402.18 47.588 401.116 45.474 401.116C42.744 401.116 40.602 403.188 40.602 406.114ZM51.4165 407.136C51.4165 409.516 52.9985 411.126 55.0425 411.126C56.4565 411.126 57.4505 410.398 57.9125 409.572V411H59.2005V403.328H57.9125V404.728C57.4645 403.93 56.4845 403.202 55.0565 403.202C52.9985 403.202 51.4165 404.742 51.4165 407.136ZM57.9125 407.15C57.9125 408.956 56.7085 410.006 55.3085 410.006C53.9085 410.006 52.7185 408.942 52.7185 407.136C52.7185 405.33 53.9085 404.308 55.3085 404.308C56.7085 404.308 57.9125 405.372 57.9125 407.15ZM61.6334 408.9C61.6334 410.44 62.4034 411 63.7614 411H64.9094V409.922H63.9714C63.1874 409.922 62.9074 409.656 62.9074 408.9V404.378H64.9094V403.328H62.9074V401.396H61.6334V403.328H60.6394V404.378H61.6334V408.9ZM69.715 404.28C71.031 404.28 72.151 405.106 72.137 406.604H67.293C67.433 405.106 68.469 404.28 69.715 404.28ZM73.299 408.634H71.927C71.647 409.46 70.919 410.048 69.771 410.048C68.469 410.048 67.377 409.194 67.279 407.64H73.411C73.439 407.374 73.453 407.15 73.453 406.87C73.453 404.77 71.997 403.202 69.771 403.202C67.531 403.202 65.977 404.728 65.977 407.15C65.977 409.586 67.587 411.126 69.771 411.126C71.675 411.126 72.907 410.034 73.299 408.634ZM74.6586 407.136C74.6586 409.516 76.2406 411.126 78.2986 411.126C79.6986 411.126 80.6926 410.384 81.1546 409.558V411.168C81.1546 412.806 80.1326 413.674 78.7746 413.674C77.5146 413.674 76.6046 413.044 76.3246 412.12H75.0646C75.3166 413.758 76.7586 414.78 78.7746 414.78C81.0286 414.78 82.4426 413.282 82.4426 411.168V403.328H81.1546V404.728C80.7066 403.902 79.6986 403.202 78.2986 403.202C76.2406 403.202 74.6586 404.742 74.6586 407.136ZM81.1546 407.15C81.1546 408.956 79.9506 410.006 78.5506 410.006C77.1506 410.006 75.9606 408.942 75.9606 407.136C75.9606 405.33 77.1506 404.308 78.5506 404.308C79.9506 404.308 81.1546 405.372 81.1546 407.15ZM91.8756 407.15C91.8756 404.728 90.1816 403.202 87.9976 403.202C85.8276 403.202 84.1196 404.728 84.1196 407.15C84.1196 409.586 85.7716 411.126 87.9416 411.126C90.1256 411.126 91.8756 409.586 91.8756 407.15ZM85.4216 407.15C85.4216 405.218 86.6396 404.308 87.9836 404.308C89.2996 404.308 90.5736 405.218 90.5736 407.15C90.5736 409.096 89.2716 410.006 87.9416 410.006C86.6116 410.006 85.4216 409.096 85.4216 407.15ZM94.8247 406.828C94.8247 405.05 95.7487 404.504 96.9667 404.504H97.3027V403.188C96.0847 403.188 95.2587 403.72 94.8247 404.574V403.328H93.5507V411H94.8247V406.828ZM98.7733 411H100.047V403.328H98.7733V411ZM99.4313 402.082C99.8933 402.082 100.271 401.704 100.271 401.214C100.271 400.724 99.8933 400.346 99.4313 400.346C98.9413 400.346 98.5633 400.724 98.5633 401.214C98.5633 401.704 98.9413 402.082 99.4313 402.082ZM101.743 407.136C101.743 409.516 103.325 411.126 105.369 411.126C106.783 411.126 107.777 410.398 108.239 409.572V411H109.527V403.328H108.239V404.728C107.791 403.93 106.811 403.202 105.383 403.202C103.325 403.202 101.743 404.742 101.743 407.136ZM108.239 407.15C108.239 408.956 107.035 410.006 105.635 410.006C104.235 410.006 103.045 408.942 103.045 407.136C103.045 405.33 104.235 404.308 105.635 404.308C107.035 404.308 108.239 405.372 108.239 407.15Z" fill="#969CB3"/>
<rect x="24" y="447" width="327" height="50" rx="5" fill="#FF872C"/>
<path d="M172.9 467.256H167.524V477H172.9V475.698H169.12V472.716H172.48V471.414H169.12V468.558H172.9V467.256ZM180.339 477H181.921V472.45C181.921 470.294 180.563 469.16 178.757 469.16C177.833 469.16 176.979 469.538 176.461 470.168V469.286H174.865V477H176.461V472.688C176.461 471.274 177.231 470.546 178.407 470.546C179.569 470.546 180.339 471.274 180.339 472.688V477ZM183.047 469.286L185.973 477H187.877L190.817 469.286H189.123L186.939 475.572L184.755 469.286H183.047ZM192.024 477H193.62V469.286H192.024V477ZM192.836 468.264C193.396 468.264 193.844 467.816 193.844 467.242C193.844 466.668 193.396 466.22 192.836 466.22C192.262 466.22 191.814 466.668 191.814 467.242C191.814 467.816 192.262 468.264 192.836 468.264ZM195.183 473.108C195.183 475.488 196.793 477.126 198.795 477.126C200.083 477.126 201.007 476.51 201.497 475.852V477H203.107V469.286H201.497V470.406C201.021 469.776 200.125 469.16 198.823 469.16C196.793 469.16 195.183 470.728 195.183 473.108ZM201.497 473.136C201.497 474.802 200.363 475.74 199.159 475.74C197.969 475.74 196.821 474.774 196.821 473.108C196.821 471.442 197.969 470.546 199.159 470.546C200.363 470.546 201.497 471.484 201.497 473.136ZM206.799 472.94C206.799 471.302 207.527 470.812 208.703 470.812H209.109V469.16C208.017 469.16 207.247 469.636 206.799 470.406V469.286H205.203V477H206.799V472.94Z" fill="white"/>
<rect width="375" height="105" fill="#5636D3"/>
<rect width="375" height="24" fill="black" fill-opacity="0.1"/>
<path fill-rule="evenodd" clip-rule="evenodd" d="M47.211 56.7127C47.3077 56.8348 47.3909 56.9665 47.4587 57.1061C51.4604 58.0655 54.4064 61.2401 54.4064 64.9983C54.4064 69.5138 50.1538 73.1875 44.9266 73.1875C42.1977 73.1875 39.7348 72.1858 38.0036 70.5862H31.4319C30.0176 70.5862 28.8668 69.5921 28.8668 68.3703C28.8668 67.6685 29.2468 67.0424 29.8379 66.6361C29.2468 66.2298 28.8668 65.6036 28.8668 64.9019C28.8668 64.2002 29.2468 63.574 29.8379 63.1677C29.2468 62.7614 28.8668 62.1352 28.8668 61.4335C28.8668 60.7318 29.2468 60.1056 29.8379 59.6993C29.2468 59.2931 28.8668 58.6669 28.8668 57.9651C28.8668 56.7433 30.0176 55.7492 31.4319 55.7492H32.8862C32.6023 55.3927 32.4357 54.9613 32.4357 54.4968C32.4357 54.0323 32.6023 53.6009 32.8862 53.2443H28.4207C27.0063 53.2443 25.8556 52.2502 25.8556 51.0284C25.8556 49.8066 27.0063 48.8125 28.4207 48.8125H42.0827C43.497 48.8125 44.6478 49.8066 44.6478 51.0284C44.6478 51.4929 44.4811 51.9243 44.1972 52.2809H48.6627C50.0771 52.2809 51.2278 53.2749 51.2278 54.4968C51.2278 55.7186 50.0771 56.7127 48.6627 56.7127H47.211ZM50.1125 54.4968C50.1125 53.8062 49.4622 53.2443 48.6627 53.2443H35.0008C34.2013 53.2443 33.5509 53.8062 33.5509 54.4968C33.5509 55.1874 34.2013 55.7492 35.0008 55.7492H45.0939H48.6627C49.4622 55.7492 50.1125 55.1874 50.1125 54.4968ZM26.9709 51.0284C26.9709 51.719 27.6212 52.2809 28.4207 52.2809H42.0827C42.8821 52.2809 43.5325 51.719 43.5325 51.0284C43.5325 50.3378 42.8821 49.7759 42.0827 49.7759H28.4207C27.6212 49.7759 26.9709 50.3378 26.9709 51.0284ZM45.0939 56.7127H31.4319C30.6325 56.7127 29.9821 57.2746 29.9821 57.9651C29.9821 58.6557 30.6325 59.2176 31.4319 59.2176H38.2184C39.9356 57.7306 42.3088 56.8091 44.9266 56.8091C45.1961 56.8091 45.4627 56.8194 45.7265 56.8385C45.5336 56.7578 45.3185 56.7127 45.0939 56.7127ZM37.2656 60.1811H31.4319C30.6325 60.1811 29.9821 60.7429 29.9821 61.4335C29.9821 62.1242 30.6325 62.686 31.4319 62.686H35.8323C36.1431 61.7753 36.6326 60.9303 37.2656 60.1811ZM35.5762 63.6494H31.4319C30.6325 63.6494 29.9821 64.2113 29.9821 64.9019C29.9821 65.5925 30.6325 66.1544 31.4319 66.1544H35.5418C35.4798 65.7766 35.4469 65.3907 35.4469 64.9983C35.4469 64.5389 35.4916 64.0884 35.5762 63.6494ZM29.9821 68.3703C29.9821 69.0609 30.6325 69.6227 31.4319 69.6227H37.1074C36.508 68.8687 36.0509 68.0241 35.7695 67.1178H31.4319C30.6325 67.1178 29.9821 67.6796 29.9821 68.3703ZM36.5622 64.9983C36.5622 68.9826 40.3145 72.2241 44.9266 72.2241C49.5388 72.2241 53.2911 68.9826 53.2911 64.9983C53.2911 61.014 49.5388 57.7725 44.9266 57.7725C40.3145 57.7725 36.5622 61.014 36.5622 64.9983ZM43.5042 63.3517C43.5042 63.937 44.1411 64.4133 44.924 64.4133C46.4185 64.4133 47.6344 65.3896 47.6344 66.5898C47.6344 67.6114 46.7532 68.4703 45.5693 68.7035V68.9443C45.5693 69.2521 45.2803 69.5018 44.924 69.5018C44.5676 69.5018 44.2786 69.2521 44.2786 68.9443V68.7035C43.0947 68.4703 42.2136 67.6114 42.2136 66.5898C42.2136 66.2819 42.5025 66.0323 42.8589 66.0323C43.2153 66.0323 43.5042 66.2819 43.5042 66.5898C43.5042 67.1751 44.1411 67.6513 44.924 67.6513C45.7068 67.6513 46.3437 67.1751 46.3437 66.5898C46.3437 66.0044 45.7068 65.5282 44.924 65.5282C43.4294 65.5282 42.2136 64.5518 42.2136 63.3517C42.2136 62.3302 43.0947 61.4712 44.2786 61.2381V60.9481C44.2786 60.6403 44.5676 60.3906 44.924 60.3906C45.2803 60.3906 45.5693 60.6403 45.5693 60.9481V61.2381C46.7532 61.4712 47.6344 62.3302 47.6344 63.3517C47.6344 63.6596 47.3454 63.9092 46.989 63.9092C46.6327 63.9092 46.3437 63.6596 46.3437 63.3517C46.3437 62.7664 45.7068 62.2902 44.924 62.2902C44.1411 62.2902 43.5042 62.7664 43.5042 63.3517Z" fill="#FF872C"/>
<path d="M47.4587 57.1061L47.2339 57.2154L47.2855 57.3217L47.4004 57.3493L47.4587 57.1061ZM47.211 56.7127V56.4627H46.694L47.015 56.8679L47.211 56.7127ZM38.0036 70.5862L38.1733 70.4026L38.1014 70.3362H38.0036V70.5862ZM29.8379 66.6361L29.9795 66.8421L30.2793 66.6361L29.9795 66.43L29.8379 66.6361ZM29.8379 63.1677L29.9795 63.3737L30.2793 63.1677L29.9795 62.9617L29.8379 63.1677ZM29.8379 59.6993L29.9795 59.9054L30.2793 59.6993L29.9795 59.4933L29.8379 59.6993ZM32.8862 55.7492V55.9992H33.4049L33.0818 55.5935L32.8862 55.7492ZM32.8862 53.2443L33.0818 53.4L33.4048 52.9943H32.8862V53.2443ZM44.1972 52.2809L44.0016 52.1252L43.6786 52.5309H44.1972V52.2809ZM38.2184 59.2176V59.4676H38.3116L38.3821 59.4066L38.2184 59.2176ZM45.7265 56.8385L45.7084 57.0879L45.823 56.6079L45.7265 56.8385ZM37.2656 60.1811L37.4565 60.3424L37.8041 59.9311H37.2656V60.1811ZM35.8323 62.686V62.936H36.0111L36.0689 62.7667L35.8323 62.686ZM35.5762 63.6494L35.8217 63.6967L35.879 63.3994H35.5762V63.6494ZM35.5418 66.1544V66.4044H35.8362L35.7885 66.1138L35.5418 66.1544ZM37.1074 69.6227V69.8727H37.6255L37.3031 69.4672L37.1074 69.6227ZM35.7695 67.1178L36.0083 67.0437L35.9537 66.8678H35.7695V67.1178ZM45.5693 68.7035L45.521 68.4582L45.3193 68.4979V68.7035H45.5693ZM44.2786 68.7035H44.5286V68.4979L44.3269 68.4582L44.2786 68.7035ZM44.2786 61.2381L44.3269 61.4833L44.5286 61.4436V61.2381H44.2786ZM45.5693 61.2381H45.3193V61.4436L45.521 61.4833L45.5693 61.2381ZM47.6836 56.9969C47.6076 56.8405 47.5147 56.6935 47.4069 56.5574L47.015 56.8679C47.1007 56.9761 47.1741 57.0924 47.2339 57.2154L47.6836 56.9969ZM54.6564 64.9983C54.6564 61.0993 51.6046 57.843 47.517 56.863L47.4004 57.3493C51.3161 58.288 54.1564 61.3809 54.1564 64.9983H54.6564ZM44.9266 73.4375C50.2562 73.4375 54.6564 69.685 54.6564 64.9983H54.1564C54.1564 69.3427 50.0513 72.9375 44.9266 72.9375V73.4375ZM37.8339 70.7698C39.613 72.4137 42.1371 73.4375 44.9266 73.4375V72.9375C42.2582 72.9375 39.8566 71.958 38.1733 70.4026L37.8339 70.7698ZM31.4319 70.8362H38.0036V70.3362H31.4319V70.8362ZM28.6168 68.3703C28.6168 69.7633 29.9151 70.8362 31.4319 70.8362V70.3362C30.12 70.3362 29.1168 69.4209 29.1168 68.3703H28.6168ZM29.6963 66.43C29.0487 66.8751 28.6168 67.5733 28.6168 68.3703H29.1168C29.1168 67.7638 29.4448 67.2096 29.9795 66.8421L29.6963 66.43ZM28.6168 64.9019C28.6168 65.6989 29.0487 66.397 29.6963 66.8421L29.9795 66.43C29.4448 66.0626 29.1168 65.5083 29.1168 64.9019H28.6168ZM29.6963 62.9617C29.0487 63.4068 28.6168 64.1049 28.6168 64.9019H29.1168C29.1168 64.2954 29.4448 63.7412 29.9795 63.3737L29.6963 62.9617ZM28.6168 61.4335C28.6168 62.2305 29.0487 62.9287 29.6963 63.3737L29.9795 62.9617C29.4448 62.5942 29.1168 62.04 29.1168 61.4335H28.6168ZM29.6963 59.4933C29.0487 59.9384 28.6168 60.6365 28.6168 61.4335H29.1168C29.1168 60.8271 29.4448 60.2729 29.9795 59.9054L29.6963 59.4933ZM28.6168 57.9651C28.6168 58.7621 29.0487 59.4603 29.6963 59.9054L29.9795 59.4933C29.4448 59.1258 29.1168 58.5716 29.1168 57.9651H28.6168ZM31.4319 55.4992C29.9151 55.4992 28.6168 56.5722 28.6168 57.9651H29.1168C29.1168 56.9145 30.12 55.9992 31.4319 55.9992V55.4992ZM32.8862 55.4992H31.4319V55.9992H32.8862V55.4992ZM32.1857 54.4968C32.1857 55.0231 32.3749 55.5084 32.6907 55.905L33.0818 55.5935C32.8297 55.2769 32.6857 54.8995 32.6857 54.4968H32.1857ZM32.6906 53.0886C32.3749 53.4851 32.1857 53.9705 32.1857 54.4968H32.6857C32.6857 54.0941 32.8297 53.7166 33.0818 53.4L32.6906 53.0886ZM28.4207 53.4943H32.8862V52.9943H28.4207V53.4943ZM25.6056 51.0284C25.6056 52.4214 26.9039 53.4943 28.4207 53.4943V52.9943C27.1088 52.9943 26.1056 52.0791 26.1056 51.0284H25.6056ZM28.4207 48.5625C26.9039 48.5625 25.6056 49.6354 25.6056 51.0284H26.1056C26.1056 49.9777 27.1088 49.0625 28.4207 49.0625V48.5625ZM42.0827 48.5625H28.4207V49.0625H42.0827V48.5625ZM44.8978 51.0284C44.8978 49.6354 43.5995 48.5625 42.0827 48.5625V49.0625C43.3946 49.0625 44.3978 49.9777 44.3978 51.0284H44.8978ZM44.3928 52.4366C44.7085 52.04 44.8978 51.5547 44.8978 51.0284H44.3978C44.3978 51.4311 44.2537 51.8086 44.0016 52.1252L44.3928 52.4366ZM48.6627 52.0309H44.1972V52.5309H48.6627V52.0309ZM51.4778 54.4968C51.4778 53.1038 50.1796 52.0309 48.6627 52.0309V52.5309C49.9746 52.5309 50.9778 53.4461 50.9778 54.4968H51.4778ZM48.6627 56.9627C50.1796 56.9627 51.4778 55.8898 51.4778 54.4968H50.9778C50.9778 55.5475 49.9746 56.4627 48.6627 56.4627V56.9627ZM47.211 56.9627H48.6627V56.4627H47.211V56.9627ZM48.6627 53.4943C49.3597 53.4943 49.8625 53.9773 49.8625 54.4968H50.3625C50.3625 53.635 49.5647 52.9943 48.6627 52.9943V53.4943ZM35.0008 53.4943H48.6627V52.9943H35.0008V53.4943ZM33.8009 54.4968C33.8009 53.9773 34.3038 53.4943 35.0008 53.4943V52.9943C34.0988 52.9943 33.3009 53.635 33.3009 54.4968H33.8009ZM35.0008 55.4992C34.3038 55.4992 33.8009 55.0162 33.8009 54.4968H33.3009C33.3009 55.3585 34.0988 55.9992 35.0008 55.9992V55.4992ZM45.0939 55.4992H35.0008V55.9992H45.0939V55.4992ZM48.6627 55.4992H45.0939V55.9992H48.6627V55.4992ZM49.8625 54.4968C49.8625 55.0162 49.3597 55.4992 48.6627 55.4992V55.9992C49.5647 55.9992 50.3625 55.3585 50.3625 54.4968H49.8625ZM28.4207 52.0309C27.7237 52.0309 27.2209 51.5478 27.2209 51.0284H26.7209C26.7209 51.8901 27.5188 52.5309 28.4207 52.5309V52.0309ZM42.0827 52.0309H28.4207V52.5309H42.0827V52.0309ZM43.2825 51.0284C43.2825 51.5478 42.7797 52.0309 42.0827 52.0309V52.5309C42.9846 52.5309 43.7825 51.8901 43.7825 51.0284H43.2825ZM42.0827 50.0259C42.7797 50.0259 43.2825 50.509 43.2825 51.0284H43.7825C43.7825 50.1667 42.9846 49.5259 42.0827 49.5259V50.0259ZM28.4207 50.0259H42.0827V49.5259H28.4207V50.0259ZM27.2209 51.0284C27.2209 50.509 27.7237 50.0259 28.4207 50.0259V49.5259C27.5188 49.5259 26.7209 50.1667 26.7209 51.0284H27.2209ZM31.4319 56.9627H45.0939V56.4627H31.4319V56.9627ZM30.2321 57.9651C30.2321 57.4457 30.735 56.9627 31.4319 56.9627V56.4627C30.53 56.4627 29.7321 57.1034 29.7321 57.9651H30.2321ZM31.4319 58.9676C30.735 58.9676 30.2321 58.4846 30.2321 57.9651H29.7321C29.7321 58.8269 30.53 59.4676 31.4319 59.4676V58.9676ZM38.2184 58.9676H31.4319V59.4676H38.2184V58.9676ZM44.9266 56.5591C42.2507 56.5591 39.8188 57.501 38.0547 59.0286L38.3821 59.4066C40.0523 57.9601 42.367 57.0591 44.9266 57.0591V56.5591ZM45.7446 56.5892C45.4752 56.5696 45.2025 56.5591 44.9266 56.5591V57.0591C45.1897 57.0591 45.4503 57.0691 45.7084 57.0879L45.7446 56.5892ZM45.0939 56.9627C45.2851 56.9627 45.4674 57.0011 45.63 57.0691L45.823 56.6079C45.5998 56.5145 45.3519 56.4627 45.0939 56.4627V56.9627ZM31.4319 60.4311H37.2656V59.9311H31.4319V60.4311ZM30.2321 61.4335C30.2321 60.9141 30.7349 60.4311 31.4319 60.4311V59.9311C30.53 59.9311 29.7321 60.5718 29.7321 61.4335H30.2321ZM31.4319 62.436C30.7349 62.436 30.2321 61.953 30.2321 61.4335H29.7321C29.7321 62.2953 30.53 62.936 31.4319 62.936V62.436ZM35.8323 62.436H31.4319V62.936H35.8323V62.436ZM37.0746 60.0197C36.4228 60.7912 35.9172 61.6632 35.5957 62.6052L36.0689 62.7667C36.369 61.8874 36.8423 61.0694 37.4565 60.3424L37.0746 60.0197ZM31.4319 63.8994H35.5762V63.3994H31.4319V63.8994ZM30.2321 64.9019C30.2321 64.3824 30.7349 63.8994 31.4319 63.8994V63.3994C30.53 63.3994 29.7321 64.0401 29.7321 64.9019H30.2321ZM31.4319 65.9044C30.7349 65.9044 30.2321 65.4214 30.2321 64.9019H29.7321C29.7321 65.7637 30.53 66.4044 31.4319 66.4044V65.9044ZM35.5418 65.9044H31.4319V66.4044H35.5418V65.9044ZM35.1969 64.9983C35.1969 65.4047 35.2309 65.8041 35.2951 66.1949L35.7885 66.1138C35.7286 65.749 35.6969 65.3767 35.6969 64.9983H35.1969ZM35.3308 63.6021C35.2432 64.0563 35.1969 64.5226 35.1969 64.9983H35.6969C35.6969 64.5552 35.7401 64.1205 35.8217 63.6967L35.3308 63.6021ZM31.4319 69.3727C30.7349 69.3727 30.2321 68.8897 30.2321 68.3703H29.7321C29.7321 69.2321 30.53 69.8727 31.4319 69.8727V69.3727ZM37.1074 69.3727H31.4319V69.8727H37.1074V69.3727ZM35.5308 67.1919C35.8219 68.1296 36.2942 69.0015 36.9117 69.7783L37.3031 69.4672C36.7218 68.7358 36.2799 67.9186 36.0083 67.0437L35.5308 67.1919ZM31.4319 67.3678H35.7695V66.8678H31.4319V67.3678ZM30.2321 68.3703C30.2321 67.8508 30.7349 67.3678 31.4319 67.3678V66.8678C30.53 66.8678 29.7321 67.5085 29.7321 68.3703H30.2321ZM44.9266 71.9741C40.417 71.9741 36.8122 68.8114 36.8122 64.9983H36.3122C36.3122 69.1537 40.212 72.4741 44.9266 72.4741V71.9741ZM53.0411 64.9983C53.0411 68.8114 49.4363 71.9741 44.9266 71.9741V72.4741C49.6413 72.4741 53.5411 69.1537 53.5411 64.9983H53.0411ZM44.9266 58.0225C49.4363 58.0225 53.0411 61.1852 53.0411 64.9983H53.5411C53.5411 60.8428 49.6413 57.5225 44.9266 57.5225V58.0225ZM36.8122 64.9983C36.8122 61.1852 40.417 58.0225 44.9266 58.0225V57.5225C40.212 57.5225 36.3122 60.8428 36.3122 64.9983H36.8122ZM44.924 64.1633C44.5814 64.1633 44.2802 64.0587 44.0702 63.9018C43.8602 63.7448 43.7542 63.5475 43.7542 63.3517H43.2542C43.2542 63.7413 43.4667 64.0748 43.7708 64.3022C44.075 64.5297 44.4837 64.6633 44.924 64.6633V64.1633ZM47.8844 66.5898C47.8844 65.2031 46.5026 64.1633 44.924 64.1633V64.6633C46.3344 64.6633 47.3844 65.5761 47.3844 66.5898H47.8844ZM45.6176 68.9488C46.8773 68.7007 47.8844 67.7685 47.8844 66.5898H47.3844C47.3844 67.4542 46.6292 68.24 45.521 68.4582L45.6176 68.9488ZM45.8193 68.9443V68.7035H45.3193V68.9443H45.8193ZM44.924 69.7518C45.3828 69.7518 45.8193 69.4233 45.8193 68.9443H45.3193C45.3193 69.081 45.1778 69.2518 44.924 69.2518V69.7518ZM44.0286 68.9443C44.0286 69.4233 44.4651 69.7518 44.924 69.7518V69.2518C44.6701 69.2518 44.5286 69.081 44.5286 68.9443H44.0286ZM44.0286 68.7035V68.9443H44.5286V68.7035H44.0286ZM41.9636 66.5898C41.9636 67.7685 42.9706 68.7007 44.2303 68.9488L44.3269 68.4582C43.2188 68.24 42.4636 67.4542 42.4636 66.5898H41.9636ZM42.8589 65.7823C42.4001 65.7823 41.9636 66.1108 41.9636 66.5898H42.4636C42.4636 66.4531 42.605 66.2823 42.8589 66.2823V65.7823ZM43.7542 66.5898C43.7542 66.1108 43.3177 65.7823 42.8589 65.7823V66.2823C43.1128 66.2823 43.2542 66.4531 43.2542 66.5898H43.7542ZM44.924 67.4013C44.5814 67.4013 44.2802 67.2968 44.0702 67.1398C43.8602 66.9828 43.7542 66.7855 43.7542 66.5898H43.2542C43.2542 66.9794 43.4667 67.3129 43.7708 67.5403C44.075 67.7677 44.4837 67.9013 44.924 67.9013V67.4013ZM46.0937 66.5898C46.0937 66.7855 45.9877 66.9828 45.7777 67.1398C45.5678 67.2968 45.2665 67.4013 44.924 67.4013V67.9013C45.3643 67.9013 45.7729 67.7677 46.0771 67.5403C46.3813 67.3129 46.5937 66.9794 46.5937 66.5898H46.0937ZM44.924 65.7782C45.2665 65.7782 45.5678 65.8827 45.7777 66.0397C45.9877 66.1967 46.0937 66.394 46.0937 66.5898H46.5937C46.5937 66.2002 46.3813 65.8667 46.0771 65.6393C45.7729 65.4118 45.3643 65.2782 44.924 65.2782V65.7782ZM41.9636 63.3517C41.9636 64.7383 43.3454 65.7782 44.924 65.7782V65.2782C43.5135 65.2782 42.4636 64.3654 42.4636 63.3517H41.9636ZM44.2303 60.9928C42.9706 61.2408 41.9636 62.173 41.9636 63.3517H42.4636C42.4636 62.4873 43.2188 61.7016 44.3269 61.4833L44.2303 60.9928ZM44.0286 60.9481V61.2381H44.5286V60.9481H44.0286ZM44.924 60.1406C44.4651 60.1406 44.0286 60.4691 44.0286 60.9481H44.5286C44.5286 60.8114 44.6701 60.6406 44.924 60.6406V60.1406ZM45.8193 60.9481C45.8193 60.4691 45.3828 60.1406 44.924 60.1406V60.6406C45.1778 60.6406 45.3193 60.8114 45.3193 60.9481H45.8193ZM45.8193 61.2381V60.9481H45.3193V61.2381H45.8193ZM47.8844 63.3517C47.8844 62.173 46.8773 61.2408 45.6176 60.9928L45.521 61.4833C46.6292 61.7016 47.3844 62.4873 47.3844 63.3517H47.8844ZM46.989 64.1592C47.4479 64.1592 47.8844 63.8307 47.8844 63.3517H47.3844C47.3844 63.4884 47.2429 63.6592 46.989 63.6592V64.1592ZM46.0937 63.3517C46.0937 63.8307 46.5302 64.1592 46.989 64.1592V63.6592C46.7352 63.6592 46.5937 63.4884 46.5937 63.3517H46.0937ZM44.924 62.5402C45.2665 62.5402 45.5678 62.6447 45.7777 62.8017C45.9877 62.9587 46.0937 63.156 46.0937 63.3517H46.5937C46.5937 62.9622 46.3813 62.6287 46.0771 62.4012C45.7729 62.1738 45.3643 62.0402 44.924 62.0402V62.5402ZM43.7542 63.3517C43.7542 63.156 43.8602 62.9587 44.0702 62.8017C44.2802 62.6447 44.5814 62.5402 44.924 62.5402V62.0402C44.4837 62.0402 44.075 62.1738 43.7708 62.4012C43.4667 62.6287 43.2542 62.9622 43.2542 63.3517H43.7542Z" fill="#FF872C"/>
<path d="M70.375 60.922C70.375 64.237 72.6954 66.4795 75.714 66.4795C77.7675 66.4795 79.2255 65.446 79.9031 64.2955V66.538C79.9031 68.8195 78.4041 70.0285 76.4122 70.0285C74.5641 70.0285 73.2293 69.151 72.8186 67.864H70.9705C71.3401 70.1455 73.4552 71.569 76.4122 71.569C79.7183 71.569 81.7923 69.4825 81.7923 66.538V55.618H79.9031V57.568C79.246 56.4175 77.7675 55.4425 75.714 55.4425C72.6954 55.4425 70.375 57.5875 70.375 60.922ZM79.9031 60.9415C79.9031 63.457 78.1371 64.9195 76.0837 64.9195C74.0302 64.9195 72.2847 63.4375 72.2847 60.922C72.2847 58.4065 74.0302 56.983 76.0837 56.983C78.1371 56.983 79.9031 58.465 79.9031 60.9415Z" fill="white"/>
<path d="M95.6283 60.9415C95.6283 57.568 93.1436 55.4425 89.9401 55.4425C86.7572 55.4425 84.252 57.568 84.252 60.9415C84.252 64.3345 86.6751 66.4795 89.858 66.4795C93.0614 66.4795 95.6283 64.3345 95.6283 60.9415ZM86.1617 60.9415C86.1617 58.2505 87.9483 56.983 89.9196 56.983C91.8499 56.983 93.7185 58.2505 93.7185 60.9415C93.7185 63.652 91.8088 64.9195 89.858 64.9195C87.9072 64.9195 86.1617 63.652 86.1617 60.9415Z" fill="white"/>
<path d="M99.1598 66.304H101.521V57.373H103.616V55.5595H101.521V54.799C101.521 53.5705 102.014 53.1025 103.452 53.1025V51.25C100.495 51.25 99.1598 52.3225 99.1598 54.799V55.5595H97.8251V57.373H99.1598V66.304Z" fill="white"/>
<path d="M105.691 66.304H108.031V55.5595H105.691V66.304ZM106.882 54.136C107.703 54.136 108.36 53.512 108.36 52.7125C108.36 51.913 107.703 51.289 106.882 51.289C106.04 51.289 105.383 51.913 105.383 52.7125C105.383 53.512 106.04 54.136 106.882 54.136Z" fill="white"/>
<path d="M119.134 66.304H121.454V59.9665C121.454 56.9635 119.463 55.384 116.814 55.384C115.458 55.384 114.206 55.9105 113.446 56.788V55.5595H111.105V66.304H113.446V60.298C113.446 58.3285 114.575 57.3145 116.3 57.3145C118.005 57.3145 119.134 58.3285 119.134 60.298V66.304Z" fill="white"/>
<path d="M123.66 60.883C123.66 64.198 126.022 66.4795 128.958 66.4795C130.847 66.4795 132.203 65.6215 132.921 64.705V66.304H135.283V55.5595H132.921V57.1195C132.223 56.242 130.909 55.384 128.999 55.384C126.022 55.384 123.66 57.568 123.66 60.883ZM132.921 60.922C132.921 63.2425 131.258 64.549 129.492 64.549C127.747 64.549 126.063 63.2035 126.063 60.883C126.063 58.5625 127.747 57.3145 129.492 57.3145C131.258 57.3145 132.921 58.621 132.921 60.922Z" fill="white"/>
<path d="M146.387 66.304H148.707V59.9665C148.707 56.9635 146.715 55.384 144.066 55.384C142.711 55.384 141.458 55.9105 140.699 56.788V55.5595H138.358V66.304H140.699V60.298C140.699 58.3285 141.828 57.3145 143.553 57.3145C145.257 57.3145 146.387 58.3285 146.387 60.298V66.304Z" fill="white"/>
<path d="M150.913 60.922C150.913 64.2955 153.213 66.4795 156.457 66.4795C159.229 66.4795 161.037 65.017 161.673 62.911H159.147C158.716 64.0225 157.854 64.6075 156.457 64.6075C154.568 64.6075 153.315 63.2815 153.315 60.922C153.315 58.582 154.568 57.256 156.457 57.256C157.854 57.256 158.757 57.919 159.147 58.9525H161.673C161.037 56.6905 159.229 55.384 156.457 55.384C153.213 55.384 150.913 57.568 150.913 60.922Z" fill="white"/>
<path d="M168.77 57.256C170.516 57.256 171.891 58.309 171.932 59.9665H165.669C165.916 58.27 167.189 57.256 168.77 57.256ZM174.068 63.106H171.542C171.111 63.9445 170.31 64.6075 168.873 64.6075C167.148 64.6075 165.813 63.535 165.649 61.7605H174.294C174.356 61.39 174.376 61.039 174.376 60.6685C174.376 57.5095 172.097 55.384 168.873 55.384C165.526 55.384 163.226 57.5485 163.226 60.922C163.226 64.2955 165.628 66.4795 168.873 66.4795C171.645 66.4795 173.431 64.978 174.068 63.106Z" fill="white"/>
<path d="M185.12 63.301C184.996 59.4205 178.61 60.6295 178.61 58.465C178.61 57.7435 179.267 57.256 180.52 57.256C181.793 57.256 182.553 57.8995 182.635 58.8355H184.976C184.853 56.6905 183.169 55.384 180.602 55.384C177.932 55.384 176.249 56.7685 176.249 58.4845C176.249 62.4235 182.82 61.2145 182.82 63.3205C182.82 64.0615 182.101 64.6075 180.746 64.6075C179.452 64.6075 178.569 63.886 178.487 63.0085H176.064C176.166 64.9585 178.076 66.4795 180.787 66.4795C183.456 66.4795 185.12 65.1145 185.12 63.301Z" fill="white"/>
<path opacity="0.6" d="M282.876 66H284.164V55.878H281.532V57.04H282.876V66ZM293.17 58.286C293.002 56.872 292.022 55.668 290.09 55.668C287.528 55.668 286.506 57.628 286.506 60.806C286.506 63.872 287.22 66.028 290.216 66.028C292.428 66.028 293.52 64.516 293.52 62.668C293.52 60.54 292.246 59.294 290.356 59.294C289.152 59.294 288.046 59.854 287.612 60.848C287.598 57.838 288.466 56.732 290.076 56.732C291.224 56.732 291.798 57.306 291.994 58.286H293.17ZM290.09 60.372C291.546 60.372 292.288 61.282 292.288 62.71C292.288 64.082 291.462 64.964 290.146 64.964C288.55 64.964 287.766 63.914 287.766 62.57C287.766 61.058 288.928 60.372 290.09 60.372ZM298.706 62.136C298.706 64.516 300.288 66.126 302.346 66.126C303.746 66.126 304.74 65.412 305.202 64.558V66H306.49V55.64H305.202V59.7C304.67 58.818 303.564 58.202 302.36 58.202C300.288 58.202 298.706 59.742 298.706 62.136ZM305.202 62.15C305.202 63.956 303.998 65.006 302.598 65.006C301.198 65.006 300.008 63.942 300.008 62.136C300.008 60.33 301.198 59.308 302.598 59.308C303.998 59.308 305.202 60.372 305.202 62.15ZM311.904 59.28C313.22 59.28 314.34 60.106 314.326 61.604H309.482C309.622 60.106 310.658 59.28 311.904 59.28ZM315.488 63.634H314.116C313.836 64.46 313.108 65.048 311.96 65.048C310.658 65.048 309.566 64.194 309.468 62.64H315.6C315.628 62.374 315.642 62.15 315.642 61.87C315.642 59.77 314.186 58.202 311.96 58.202C309.72 58.202 308.166 59.728 308.166 62.15C308.166 64.586 309.776 66.126 311.96 66.126C313.864 66.126 315.096 65.034 315.488 63.634ZM320.581 62.136C320.581 64.516 322.163 66.126 324.207 66.126C325.621 66.126 326.615 65.398 327.077 64.572V66H328.365V58.328H327.077V59.728C326.629 58.93 325.649 58.202 324.221 58.202C322.163 58.202 320.581 59.742 320.581 62.136ZM327.077 62.15C327.077 63.956 325.873 65.006 324.473 65.006C323.073 65.006 321.883 63.942 321.883 62.136C321.883 60.33 323.073 59.308 324.473 59.308C325.873 59.308 327.077 60.372 327.077 62.15ZM331.791 59.756V55.64H330.517V66H331.791V64.586C332.267 65.426 333.261 66.126 334.661 66.126C336.719 66.126 338.301 64.516 338.301 62.136C338.301 59.742 336.733 58.202 334.661 58.202C333.303 58.202 332.281 58.902 331.791 59.756ZM336.999 62.136C336.999 63.942 335.809 65.006 334.395 65.006C333.009 65.006 331.791 63.956 331.791 62.15C331.791 60.372 333.009 59.308 334.395 59.308C335.809 59.308 336.999 60.33 336.999 62.136ZM341.252 61.828C341.252 60.05 342.176 59.504 343.394 59.504H343.73V58.188C342.512 58.188 341.686 58.72 341.252 59.574V58.328H339.978V66H341.252V61.828ZM345.201 66H346.475V58.328H345.201V66ZM345.859 57.082C346.321 57.082 346.699 56.704 346.699 56.214C346.699 55.724 346.321 55.346 345.859 55.346C345.369 55.346 344.991 55.724 344.991 56.214C344.991 56.704 345.369 57.082 345.859 57.082ZM348.646 66H349.92V55.64H348.646V66Z" fill="white"/>
<path d="M271 19H283V7L271 19Z" fill="white" fill-opacity="0.3"/>
<path d="M281 9L271 19H281V9Z" fill="white"/>
<path d="M251 10.7584L252.455 12.213C256.069 8.59842 261.931 8.59842 265.545 12.213L267 10.7584C262.585 6.34387 255.422 6.34387 251 10.7584ZM256.818 16.5766L259 18.7584L261.182 16.5766C259.982 15.3693 258.025 15.3693 256.818 16.5766ZM253.909 13.6675L255.364 15.1221C257.371 13.1148 260.629 13.1148 262.636 15.1221L264.091 13.6675C261.284 10.8602 256.724 10.8602 253.909 13.6675Z" fill="white"/>
<path d="M334.267 18H332.996V9.57129L330.446 10.5078V9.35938L334.069 7.99902H334.267V18ZM338.274 13.0098L338.779 8.04688H343.879V9.21582H339.853L339.552 11.9297C340.04 11.6426 340.593 11.499 341.213 11.499C342.12 11.499 342.84 11.7998 343.373 12.4014C343.906 12.9984 344.173 13.8073 344.173 14.8281C344.173 15.8535 343.895 16.6624 343.339 17.2549C342.788 17.8428 342.015 18.1367 341.022 18.1367C340.142 18.1367 339.424 17.8929 338.868 17.4053C338.312 16.9176 337.996 16.2432 337.918 15.3818H339.114C339.192 15.9515 339.395 16.3822 339.723 16.6738C340.051 16.9609 340.484 17.1045 341.022 17.1045C341.61 17.1045 342.07 16.904 342.402 16.5029C342.74 16.1019 342.908 15.5482 342.908 14.8418C342.908 14.1764 342.726 13.6432 342.361 13.2422C342.001 12.8366 341.521 12.6338 340.919 12.6338C340.368 12.6338 339.935 12.7546 339.62 12.9961L339.285 13.2695L338.274 13.0098ZM345.363 17.3369C345.363 17.1182 345.427 16.9359 345.554 16.79C345.686 16.6442 345.882 16.5713 346.142 16.5713C346.402 16.5713 346.598 16.6442 346.73 16.79C346.867 16.9359 346.935 17.1182 346.935 17.3369C346.935 17.5465 346.867 17.722 346.73 17.8633C346.598 18.0046 346.402 18.0752 346.142 18.0752C345.882 18.0752 345.686 18.0046 345.554 17.8633C345.427 17.722 345.363 17.5465 345.363 17.3369ZM345.37 11.3008C345.37 11.082 345.433 10.8997 345.561 10.7539C345.693 10.6081 345.889 10.5352 346.149 10.5352C346.409 10.5352 346.605 10.6081 346.737 10.7539C346.873 10.8997 346.942 11.082 346.942 11.3008C346.942 11.5104 346.873 11.6859 346.737 11.8271C346.605 11.9684 346.409 12.0391 346.149 12.0391C345.889 12.0391 345.693 11.9684 345.561 11.8271C345.433 11.6859 345.37 11.5104 345.37 11.3008ZM352.541 18H351.269V9.57129L348.719 10.5078V9.35938L352.342 7.99902H352.541V18ZM357.805 12.4082H358.755C359.352 12.3991 359.821 12.2419 360.163 11.9365C360.505 11.6312 360.676 11.2188 360.676 10.6992C360.676 9.53255 360.095 8.94922 358.933 8.94922C358.386 8.94922 357.948 9.10645 357.62 9.4209C357.297 9.73079 357.135 10.1432 357.135 10.6582H355.87C355.87 9.86979 356.157 9.21582 356.731 8.69629C357.31 8.1722 358.044 7.91016 358.933 7.91016C359.871 7.91016 360.607 8.15853 361.141 8.65527C361.674 9.15202 361.94 9.84245 361.94 10.7266C361.94 11.1595 361.799 11.5788 361.517 11.9844C361.239 12.39 360.858 12.693 360.375 12.8936C360.922 13.0667 361.343 13.3538 361.64 13.7549C361.94 14.1559 362.091 14.6458 362.091 15.2246C362.091 16.1178 361.799 16.8265 361.216 17.3506C360.632 17.8747 359.874 18.1367 358.939 18.1367C358.005 18.1367 357.244 17.8838 356.656 17.3779C356.073 16.8721 355.781 16.2044 355.781 15.375H357.053C357.053 15.8991 357.224 16.3184 357.565 16.6328C357.907 16.9473 358.365 17.1045 358.939 17.1045C359.55 17.1045 360.017 16.945 360.341 16.626C360.664 16.307 360.826 15.849 360.826 15.252C360.826 14.6732 360.648 14.2288 360.293 13.9189C359.937 13.609 359.425 13.4495 358.755 13.4404H357.805V12.4082Z" fill="white"/>
<path d="M293.257 13.625C292.993 13.9395 292.676 14.1924 292.307 14.3838C291.942 14.5752 291.541 14.6709 291.104 14.6709C290.53 14.6709 290.028 14.5296 289.6 14.2471C289.176 13.9645 288.848 13.568 288.616 13.0576C288.383 12.5426 288.267 11.9753 288.267 11.3555C288.267 10.6901 288.392 10.0908 288.643 9.55762C288.898 9.02441 289.258 8.61654 289.723 8.33398C290.188 8.05143 290.73 7.91016 291.35 7.91016C292.334 7.91016 293.109 8.2793 293.674 9.01758C294.244 9.7513 294.529 10.7539 294.529 12.0254V12.3945C294.529 14.3314 294.146 15.7464 293.38 16.6396C292.615 17.5283 291.459 17.984 289.914 18.0068H289.668V16.9404H289.935C290.979 16.9222 291.781 16.651 292.341 16.127C292.902 15.5983 293.207 14.7643 293.257 13.625ZM291.309 13.625C291.733 13.625 292.122 13.4951 292.478 13.2354C292.838 12.9756 293.1 12.6543 293.264 12.2715V11.7656C293.264 10.9362 293.084 10.2617 292.724 9.74219C292.364 9.22266 291.908 8.96289 291.357 8.96289C290.801 8.96289 290.354 9.17708 290.017 9.60547C289.68 10.0293 289.511 10.5898 289.511 11.2871C289.511 11.9661 289.673 12.5267 289.997 12.9688C290.325 13.4062 290.762 13.625 291.309 13.625ZM302.418 8.75781L298.296 18H296.969L301.078 9.08594H295.691V8.04688H302.418V8.75781ZM303.464 9.96094C303.464 9.36393 303.653 8.87174 304.031 8.48438C304.414 8.09701 304.904 7.90332 305.501 7.90332C306.107 7.90332 306.597 8.09928 306.971 8.49121C307.349 8.87858 307.538 9.38216 307.538 10.002V10.4873C307.538 11.0889 307.347 11.5811 306.964 11.9639C306.586 12.3421 306.103 12.5312 305.515 12.5312C304.922 12.5312 304.432 12.3421 304.045 11.9639C303.658 11.5811 303.464 11.0729 303.464 10.4395V9.96094ZM304.407 10.4873C304.407 10.8428 304.507 11.1367 304.708 11.3691C304.909 11.597 305.177 11.7109 305.515 11.7109C305.838 11.7109 306.098 11.5993 306.294 11.376C306.494 11.1527 306.595 10.8473 306.595 10.46V9.96094C306.595 9.60547 306.497 9.31152 306.301 9.0791C306.105 8.84668 305.838 8.73047 305.501 8.73047C305.164 8.73047 304.897 8.84668 304.701 9.0791C304.505 9.31152 304.407 9.61458 304.407 9.98828V10.4873ZM308.311 15.5596C308.311 14.9626 308.5 14.4727 308.878 14.0898C309.261 13.7025 309.751 13.5088 310.348 13.5088C310.945 13.5088 311.435 13.7002 311.817 14.083C312.2 14.4658 312.392 14.974 312.392 15.6074V16.0928C312.392 16.6898 312.2 17.182 311.817 17.5693C311.439 17.9521 310.954 18.1436 310.361 18.1436C309.769 18.1436 309.279 17.9544 308.892 17.5762C308.504 17.1934 308.311 16.6852 308.311 16.0518V15.5596ZM309.254 16.0928C309.254 16.4528 309.354 16.749 309.555 16.9814C309.755 17.2093 310.024 17.3232 310.361 17.3232C310.689 17.3232 310.951 17.2116 311.147 16.9883C311.343 16.7604 311.441 16.4528 311.441 16.0654V15.5596C311.441 15.1995 311.341 14.9056 311.141 14.6777C310.945 14.4499 310.68 14.3359 310.348 14.3359C310.024 14.3359 309.76 14.4499 309.555 14.6777C309.354 14.901 309.254 15.2041 309.254 15.5869V16.0928ZM305.802 17.248L305.084 16.7969L309.944 9.01758L310.662 9.46875L305.802 17.248Z" fill="white"/>
<path fill-rule="evenodd" clip-rule="evenodd" d="M323 7H319V8H317V19H325V8H323V7Z" fill="white"/>
</svg>
